<svg xmlns="http://www.w3.org/2000/svg" width="47.5" height="30.5" viewBox="0 0 47.5 30.5">
  <g id="グループ_666" data-name="グループ 666" transform="translate(-1060.187 -517.753)">
    <path id="長方形_304" data-name="長方形 304" d="M0,0H45a2,2,0,0,1,2,2V28a2,2,0,0,1-2,2H0a0,0,0,0,1,0,0V0A0,0,0,0,1,0,0Z" transform="translate(1060.437 518.003)" fill="#c1c1c1" stroke="#c1c1c1" stroke-miterlimit="10" stroke-width="0.5"/>
    <path id="パス_130" data-name="パス 130" d="M469.817,58.677l-3.824-6.455h7.648Z" transform="translate(623.796 477.281)" fill="#333"/>
    <g id="グループ_599" data-name="グループ 599" transform="translate(212.038 -0.497)">
      <g id="長方形_290" data-name="長方形 290" transform="translate(857.751 526)" fill="#fff" stroke="#fff" stroke-width="0.5">
        <rect width="15" height="15" stroke="none"/>
        <rect x="0.25" y="0.25" width="14.5" height="14.5" fill="none"/>
      </g>
      <g id="長方形_291" data-name="長方形 291" transform="translate(857.751 526)" fill="#c1c1c1" stroke="#fff" stroke-width="0.5">
        <rect width="15" height="3" stroke="none"/>
        <rect x="0.25" y="0.25" width="14.5" height="2.5" fill="none"/>
      </g>
      <g id="グループ_597" data-name="グループ 597" transform="translate(-100.249 -56)">
        <g id="グループ_594" data-name="グループ 594">
          <g id="長方形_292" data-name="長方形 292" transform="translate(960 587)" fill="#c1c1c1" stroke="#c1c1c1" stroke-width="1">
            <rect width="2" height="2" stroke="none"/>
            <rect x="0.5" y="0.5" width="1" height="1" fill="none"/>
          </g>
          <g id="長方形_296" data-name="長方形 296" transform="translate(960 590)" fill="#c1c1c1" stroke="#c1c1c1" stroke-width="1">
            <rect width="2" height="2" stroke="none"/>
            <rect x="0.5" y="0.5" width="1" height="1" fill="none"/>
          </g>
          <g id="長方形_300" data-name="長方形 300" transform="translate(960 593)" fill="#c1c1c1" stroke="#c1c1c1" stroke-width="1">
            <rect width="2" height="2" stroke="none"/>
            <rect x="0.5" y="0.5" width="1" height="1" fill="none"/>
          </g>
          <g id="長方形_297" data-name="長方形 297" transform="translate(963 590)" fill="#c1c1c1" stroke="#c1c1c1" stroke-width="1">
            <rect width="2" height="2" stroke="none"/>
            <rect x="0.5" y="0.5" width="1" height="1" fill="none"/>
          </g>
          <g id="長方形_301" data-name="長方形 301" transform="translate(963 593)" fill="#c1c1c1" stroke="#c1c1c1" stroke-width="1">
            <rect width="2" height="2" stroke="none"/>
            <rect x="0.5" y="0.5" width="1" height="1" fill="none"/>
          </g>
          <g id="長方形_293" data-name="長方形 293" transform="translate(963 587)" fill="#c1c1c1" stroke="#c1c1c1" stroke-width="1">
            <rect width="2" height="2" stroke="none"/>
            <rect x="0.5" y="0.5" width="1" height="1" fill="none"/>
          </g>
          <g id="長方形_294" data-name="長方形 294" transform="translate(966 587)" fill="#c1c1c1" stroke="#c1c1c1" stroke-width="1">
            <rect width="2" height="2" stroke="none"/>
            <rect x="0.5" y="0.5" width="1" height="1" fill="none"/>
          </g>
          <g id="長方形_298" data-name="長方形 298" transform="translate(966 590)" fill="#c1c1c1" stroke="#c1c1c1" stroke-width="1">
            <rect width="2" height="2" stroke="none"/>
            <rect x="0.5" y="0.5" width="1" height="1" fill="none"/>
          </g>
          <g id="長方形_302" data-name="長方形 302" transform="translate(966 593)" fill="#c1c1c1" stroke="#c1c1c1" stroke-width="1">
            <rect width="2" height="2" stroke="none"/>
            <rect x="0.5" y="0.5" width="1" height="1" fill="none"/>
          </g>
          <g id="長方形_295" data-name="長方形 295" transform="translate(969 587)" fill="#c1c1c1" stroke="#c1c1c1" stroke-width="1">
            <rect width="2" height="2" stroke="none"/>
            <rect x="0.5" y="0.5" width="1" height="1" fill="none"/>
          </g>
          <g id="長方形_299" data-name="長方形 299" transform="translate(969 590)" fill="#c1c1c1" stroke="#c1c1c1" stroke-width="1">
            <rect width="2" height="2" stroke="none"/>
            <rect x="0.5" y="0.5" width="1" height="1" fill="none"/>
          </g>
          <g id="長方形_303" data-name="長方形 303" transform="translate(969 593)" fill="#c1c1c1" stroke="#c1c1c1" stroke-width="1">
            <rect width="2" height="2" stroke="none"/>
            <rect x="0.5" y="0.5" width="1" height="1" fill="none"/>
          </g>
        </g>
      </g>
    </g>
  </g>
</svg>
