<svg id="レイヤー_1" data-name="レイヤー 1" xmlns="http://www.w3.org/2000/svg" width="29.628" height="25" viewBox="0 0 29.628 25">
  <g id="グループ_153" data-name="グループ 153">
    <path id="パス_78" data-name="パス 78" d="M8.071,0h21.4a.5.5,0,0,1,.5.493V21.624a.5.5,0,0,1-.5.493H7.572V.493A.5.5,0,0,1,8.071,0Z" transform="translate(-0.347)" fill="#c20d22"/>
    <path id="パス_79" data-name="パス 79" d="M7.563,22.413H.5a.5.5,0,0,1-.5-.5V16.919a.5.5,0,0,1,.045-.207L3.426,9.288A.5.5,0,0,1,3.881,9H7.563V22.413Z" transform="translate(0 -0.296)" fill="#c20d22"/>
    <path id="パス_80" data-name="パス 80" d="M6.7,16.1a.3.3,0,0,1-.3.3H2.034a.33.33,0,0,1-.33-.33l2.263-5.762a.33.33,0,0,1,.3-.193H6.4a.3.3,0,0,1,.3.3Z" transform="translate(-0.002 -0.163)" fill="#fff"/>
    <g id="グループ_151" data-name="グループ 151" transform="translate(3.782 20.006)">
      <circle id="楕円形_2" data-name="楕円形 2" cx="2.497" cy="2.497" r="2.497" fill="#c20d22"/>
      <circle id="楕円形_3" data-name="楕円形 3" cx="1.249" cy="1.249" r="1.249" transform="translate(1.249 1.249)" fill="#fff"/>
    </g>
    <g id="グループ_152" data-name="グループ 152" transform="translate(21.255 20.006)">
      <circle id="楕円形_4" data-name="楕円形 4" cx="2.497" cy="2.497" r="2.497" fill="#c20d22"/>
      <circle id="楕円形_5" data-name="楕円形 5" cx="1.249" cy="1.249" r="1.249" transform="translate(1.249 1.249)" fill="#fff"/>
    </g>
  </g>
</svg>
