<svg xmlns="http://www.w3.org/2000/svg" width="60" height="60" viewBox="0 0 60 60">
  <path id="_レイヤー_2-2" d="M30,0A30,30,0,1,1,0,30,29.945,29.945,0,0,1,30,0Zm9.917,21.57s4.215.744,10.661-3.223,3.719-6.2,2.479-6.694-7.19-1.736-16.116,1.983S29.256,23.554,29.5,24.793s1.24,4.959,1.488,5.95,2.479,7.19-3.471,10.413-13.388,2.975-16.116.992A5.072,5.072,0,0,1,9.917,35.7c.744-.992,1.736-3.471,3.967-4.959l.5-.248s-1.983-.248-5.7,2.727-5.95,5.95-5.207,8.926,4.463,6.694,13.14,7.19,15.124-.992,19.339-6.694,2.479-12.4-1.488-17.355.992-7.438,1.736-7.934,7.438-4.215,10.909-2.975c1.736,1.736-4.215,5.455-4.215,5.455s-1.736.992-2.975,1.736Z" fill="#c20d22"/>
</svg>
