<svg id="_レイヤー_1-2" xmlns="http://www.w3.org/2000/svg" width="30" height="30" viewBox="0 0 30 30">
  <path id="パス_5" data-name="パス 5" d="M28.25,1.75v26.5H1.75V1.75h26.5M29,0H1A1,1,0,0,0,0,1V29a1,1,0,0,0,1,1H29a1,1,0,0,0,1-1V1a1,1,0,0,0-1-1Z" fill="#c30d23"/>
  <path id="パス_6" data-name="パス 6" d="M11.814,6.5a4.156,4.156,0,0,1,2.288.878q1.185.838,1.186,1.584c0,.319-.286.578-.856.783q-4.61,1.582-4.611,2.288c0,.345.257.515.774.515a5.278,5.278,0,0,0,1.795-.5,21.874,21.874,0,0,1,5.3-1.45A15.4,15.4,0,0,0,16.26,8.866a.652.652,0,0,1-.2-.343q0-.515.773-.515,1.186,0,3.458,1.813A4.124,4.124,0,0,1,22.1,12.989q0,1.717-1.218,1.716-.595,0-1.153-1.012a2.534,2.534,0,0,0-.181-.285,1.412,1.412,0,0,1-.346.037c-.164.013-.328.026-.493.037a6.756,6.756,0,0,1,.263,1.643,5.659,5.659,0,0,1,2.355.724q1.169.745,1.169,1.468,0,1.05-.971,1.051a11.161,11.161,0,0,1-1.662-.133c-.252-.025-.528-.046-.824-.059l.048,3.32q0,2-1.481,2-1.282,0-1.284-1.775l.032-3.567q-1.333.079-2.766.306-.116.667-.3,1.337a6.754,6.754,0,0,1-1.251,2.879,2.1,2.1,0,0,1-1.845.745,2.546,2.546,0,0,1-1.234-.286.655.655,0,0,1-.362-.59.609.609,0,0,1,.312-.46,5.276,5.276,0,0,0,2.024-2.975c.012-.064.023-.122.033-.172a7.359,7.359,0,0,1-.955.1,3.823,3.823,0,0,1-1.993-.419c-.349-.307-.526-.543-.526-.707a1.087,1.087,0,0,1,.543-.9,2.247,2.247,0,0,1,1.071-.363.838.838,0,0,1,.2.037,1.389,1.389,0,0,0,.313.038,4.943,4.943,0,0,0,1.153-.266q.229-.076.461-.135v-.189a3.31,3.31,0,0,0-.379-1.585h-.528A2.5,2.5,0,0,1,8.455,13.9a2.024,2.024,0,0,1-.625-1.43q0-1.241,2.98-2.8,1-.46,1-.841,0-.362-.493-.668a1.184,1.184,0,0,1-.594-.9.644.644,0,0,1,.28-.534,1.2,1.2,0,0,1,.807-.228Zm4.561,8.682a3.944,3.944,0,0,0-.328-1.432q-1.583.191-2.62.419a2.037,2.037,0,0,1,.132.306,3.226,3.226,0,0,1,.231,1.164,22.719,22.719,0,0,1,2.585-.457Z" fill="#c30d23"/>
</svg>
