<svg id="_レイヤー_1-2" xmlns="http://www.w3.org/2000/svg" width="30" height="30" viewBox="0 0 30 30">
  <path id="パス_1" data-name="パス 1" d="M15,1.75A13.25,13.25,0,1,1,1.75,15,13.265,13.265,0,0,1,15,1.75M15,0A15,15,0,1,0,30,15,15,15,0,0,0,15,0Z" fill="#c30d23"/>
  <path id="パス_2" data-name="パス 2" d="M15,6.5A2.5,2.5,0,1,0,17.5,9,2.5,2.5,0,0,0,15,6.5Z" fill="#c30d23"/>
  <path id="パス_3" data-name="パス 3" d="M16,13.5H14A1.5,1.5,0,0,0,12.5,15v7A1.5,1.5,0,0,0,14,23.5h2A1.5,1.5,0,0,0,17.5,22V15A1.5,1.5,0,0,0,16,13.5Z" fill="#c30d23"/>
</svg>
