<svg id="_レイヤー_1-2" xmlns="http://www.w3.org/2000/svg" width="30" height="28.455" viewBox="0 0 30 28.455">
  <path id="パス_4" data-name="パス 4" d="M25,1.75A3.254,3.254,0,0,1,28.25,5V15A3.254,3.254,0,0,1,25,18.25H5A3.254,3.254,0,0,1,1.75,15V5A3.254,3.254,0,0,1,5,1.75H25M25,0H5A5,5,0,0,0,0,5V15a5,5,0,0,0,5,5H25a5,5,0,0,0,5-5V5a5,5,0,0,0-5-5Z" fill="#c30d23"/>
  <circle id="楕円形_1" data-name="楕円形 1" cx="3" cy="3" r="3" transform="translate(11.995 7)" fill="#c30d23"/>
  <rect id="長方形_1" data-name="長方形 1" width="27" height="1.75" transform="translate(1.5 22.955)" fill="#c30d23"/>
  <rect id="長方形_2" data-name="長方形 2" width="27" height="1.75" transform="translate(1.5 26.705)" fill="#c30d23"/>
</svg>
