<?xml version="1.0" encoding="UTF-8"?><svg id="_レイヤー_1" xmlns="http://www.w3.org/2000/svg" viewBox="0 0 160 160.000002"><defs><style>.cls-1{fill:#c30d23;stroke-width:0px;}</style></defs><path id="_パス_9" class="cls-1" d="m80.006946,0C35.824165-.003836.003836,35.810272,0,79.993053c-.003836,44.182781,35.810275,80.003107,79.993056,80.006949,44.182774.003828,80.003114-35.810272,80.006942-79.993059v-.010419C160.007669,35.823337,124.204445.007673,80.031255.000002c-.008101-.000001-.016208-.000002-.024309-.000002Zm59.070184,46.648433c-10.219686,7.637356-22.572131,11.887187-35.327517,12.154357,6.878768-3.516572,13.406804-7.680608,19.495588-12.435648,5.365275-4.80271,5.660463-9.216479-2.833696-8.19551-8.520375,1.405296-16.681022,4.473212-24.017017,9.028955-3.663672,2.54547-13.119763,8.824067-2.53158,22.336238,23.447493,29.955287,1.125144,72.613619-58.219383,61.883055-43.804312-7.907268-28.538436-41.255361,4.233193-51.142066-7.337761,5.93827-14.404652,14.126842-14.970699,21.183315-.461865,5.799366,5.643096,18.009285,29.114901,14.967224,24.017014-3.104574,35.313624-14.692882,27.684157-36.727004-7.247471-20.94717-2.906628-31.861788,9.331077-39.005079,13.253156-7.460483,28.323987-11.077863,43.51956-10.445802,8.473321.566046,18.655212,5.931328,4.514474,16.394498l.006942.003467Z"/></svg>